<svg xmlns="http://www.w3.org/2000/svg" width="6000" height="6000" preserveAspectRatio="xMidYMid meet" version="1.0" viewBox="0 0 4500 4500"><metadata>Created by potrace 1.11, written by Peter Selinger 2001-2013</metadata><g fill="#000" stroke="none"><path d="M0 22500 l0 -22500 22500 0 22500 0 0 22500 0 22500 -22500 0 -22500 0 0 -22500z m25551 7123 c1681 -1682 3119 -3129 3197 -3216 797 -891 1375 -1881 1742 -2984 921 -2770 343 -5842 -1519 -8068 -325 -389 -730 -791 -1126 -1119 -1243 -1029 -2799 -1687 -4415 -1866 -396 -44 -996 -62 -1380 -41 -1923 106 -3688 824 -5135 2089 -171 150 -660 642 -801 807 -458 536 -832 1098 -1145 1725 -441 882 -720 1817 -833 2795 -65 556 -73 1202 -21 1760 171 1833 930 3548 2173 4908 196 215 572 580 707 688 571 454 1206 732 1910 834 910 132 1827 -49 2608 -515 997 -593 1690 -1602 1883 -2737 73 -434 73 -925 -1 -1353 -116 -668 -392 -1278 -822 -1815 -107 -133 -351 -386 -488 -504 -257 -222 -528 -402 -834 -555 -887 -443 -1920 -535 -2882 -256 -384 111 -794 304 -1114 524 -44 30 -81 53 -83 51 -7 -7 18 -461 33 -595 117 -1050 530 -2016 1215 -2840 136 -163 490 -517 655 -654 818 -680 1772 -1091 2805 -1211 912 -105 1845 31 2687 391 223 95 386 177 632 318 410 235 626 401 967 741 312 311 466 492 677 794 1093 1559 1258 3614 428 5336 -193 400 -420 751 -720 1115 -71 86 -728 750 -2085 2107 l-1981 1983 -155 -154 -155 -154 -105 70 c-534 353 -1204 606 -1870 707 -272 42 -339 46 -720 46 -380 0 -476 -7 -740 -49 -47 -8 -87 -13 -89 -11 -5 6 59 117 129 225 56 87 219 252 1883 1918 1002 1002 1824 1822 1827 1822 3 0 1380 -1376 3061 -3057z" transform="translate(0.000000,4500.000000) scale(0.100000,-0.100000)"/></g></svg>